<svg
        xmlns="http://www.w3.org/2000/svg"
        xmlns:xlink="http://www.w3.org/1999/xlink"
        width="47px" height="18px">
    <path fill-rule="evenodd"  fill="rgb(255, 255, 255)"
          d="M46.000,10.000 L1.000,10.000 C0.448,10.000 -0.000,9.552 -0.000,9.000 C-0.000,8.448 0.448,8.000 1.000,8.000 L46.000,8.000 C46.552,8.000 47.000,8.448 47.000,9.000 C47.000,9.552 46.552,10.000 46.000,10.000 ZM28.000,2.000 L1.000,2.000 C0.448,2.000 -0.000,1.552 -0.000,1.000 C-0.000,0.448 0.448,-0.000 1.000,-0.000 L28.000,-0.000 C28.552,-0.000 29.000,0.448 29.000,1.000 C29.000,1.552 28.552,2.000 28.000,2.000 ZM1.000,16.000 L21.000,16.000 C21.552,16.000 22.000,16.447 22.000,17.000 C22.000,17.552 21.552,18.000 21.000,18.000 L1.000,18.000 C0.448,18.000 -0.000,17.552 -0.000,17.000 C-0.000,16.447 0.448,16.000 1.000,16.000 Z"/>
</svg>