<svg
        xmlns="http://www.w3.org/2000/svg"
        xmlns:xlink="http://www.w3.org/1999/xlink"
        width="24px" height="24px">
    <path fill-rule="evenodd"  fill="rgb(255, 255, 255)"
          d="M12.636,12.778 C12.245,13.168 11.612,13.168 11.222,12.778 C10.831,12.387 10.831,11.754 11.222,11.363 L21.364,1.220 C21.754,0.830 22.388,0.830 22.778,1.220 C23.169,1.611 23.169,2.245 22.778,2.635 L12.636,12.778 ZM21.364,11.221 C21.754,10.831 22.388,10.831 22.778,11.221 C23.169,11.612 23.169,12.245 22.778,12.635 L12.636,22.777 C12.305,23.108 11.808,23.141 11.424,22.912 C11.059,23.078 10.616,23.018 10.315,22.717 L0.282,12.684 C-0.105,12.297 -0.105,11.669 0.282,11.281 C0.670,10.894 1.298,10.894 1.685,11.281 L11.495,21.090 L21.364,11.221 Z"/>
</svg>